<svg aria-hidden="true" style="position: absolute; width: 0; height: 0; overflow: hidden;" version="1.1" xmlns="http://www.w3.org/2000/svg" xmlns:xlink="http://www.w3.org/1999/xlink">
<defs>

<symbol id="icon-page-arrow" viewBox="0 0 32 32">
<path d="M10.914 29.914l-2.828-2.828 11.586-11.586-11.586-11.586 2.828-2.828 14.414 14.414-14.414 14.414z"></path>
</symbol>

<symbol id="icon-start-arrow" viewBox="0 0 32 32">
<path stroke-linejoin="round" stroke-linecap="round" stroke-miterlimit="4" stroke-width="2.6" d="M15 28l13-13M28 15l-13-13M28 15h-26"></path>
</symbol>

<symbol id="icon-settings" viewBox="0 0 32 32">
<path fill="none" stroke="#efede830" style="stroke: var(--color1, #efede830)" stroke-linejoin="round" stroke-linecap="round" stroke-miterlimit="4" stroke-width="2" d="M16 20c2.209 0 4-1.791 4-4s-1.791-4-4-4c-2.209 0-4 1.791-4 4s1.791 4 4 4z"></path>
<path fill="none" stroke="#efede830" style="stroke: var(--color1, #efede830)" stroke-linejoin="round" stroke-linecap="round" stroke-miterlimit="4" stroke-width="2" d="M24.97 19.636c-0.161 0.366-0.209 0.771-0.138 1.164s0.259 0.756 0.538 1.042l0.073 0.073c0.225 0.225 0.404 0.493 0.526 0.787s0.185 0.61 0.185 0.928c0 0.319-0.063 0.634-0.185 0.928s-0.301 0.562-0.526 0.787c-0.225 0.225-0.493 0.404-0.787 0.526s-0.61 0.185-0.928 0.185c-0.319 0-0.634-0.063-0.928-0.185s-0.562-0.301-0.787-0.526l-0.073-0.073c-0.286-0.279-0.648-0.467-1.042-0.538s-0.799-0.023-1.164 0.138c-0.359 0.154-0.664 0.409-0.88 0.734s-0.331 0.706-0.333 1.096v0.206c0 0.643-0.255 1.26-0.71 1.714s-1.071 0.71-1.714 0.71-1.259-0.255-1.714-0.71c-0.455-0.455-0.71-1.071-0.71-1.714v-0.109c-0.009-0.401-0.139-0.79-0.373-1.117s-0.56-0.575-0.936-0.714c-0.366-0.161-0.771-0.209-1.164-0.138s-0.756 0.259-1.042 0.538l-0.073 0.073c-0.225 0.225-0.493 0.404-0.787 0.526s-0.61 0.185-0.928 0.185c-0.319 0-0.634-0.063-0.928-0.185s-0.562-0.301-0.787-0.526c-0.225-0.225-0.404-0.493-0.526-0.787s-0.185-0.61-0.185-0.928c0-0.319 0.063-0.634 0.185-0.928s0.301-0.562 0.526-0.787l0.073-0.073c0.279-0.286 0.467-0.648 0.538-1.042s0.023-0.799-0.138-1.164c-0.154-0.359-0.409-0.664-0.734-0.88s-0.706-0.331-1.096-0.333h-0.206c-0.643 0-1.26-0.255-1.714-0.71s-0.71-1.071-0.71-1.714c0-0.643 0.255-1.259 0.71-1.714s1.071-0.71 1.714-0.71h0.109c0.401-0.009 0.79-0.139 1.117-0.373s0.575-0.56 0.714-0.936c0.161-0.366 0.209-0.771 0.138-1.164s-0.259-0.756-0.538-1.042l-0.073-0.073c-0.225-0.225-0.404-0.493-0.526-0.787s-0.185-0.61-0.185-0.928c0-0.319 0.063-0.634 0.185-0.928s0.301-0.562 0.526-0.787c0.225-0.225 0.493-0.404 0.787-0.526s0.61-0.185 0.928-0.185c0.319 0 0.634 0.063 0.928 0.185s0.562 0.301 0.787 0.526l0.073 0.073c0.286 0.279 0.649 0.467 1.042 0.538s0.799 0.023 1.164-0.138h0.097c0.358-0.154 0.664-0.409 0.88-0.734s0.331-0.706 0.332-1.096v-0.206c0-0.643 0.255-1.26 0.71-1.714s1.071-0.71 1.714-0.71 1.26 0.255 1.714 0.71c0.455 0.455 0.71 1.071 0.71 1.714v0.109c0.002 0.39 0.117 0.771 0.333 1.096s0.521 0.58 0.88 0.734c0.366 0.161 0.771 0.209 1.164 0.138s0.756-0.259 1.042-0.538l0.073-0.073c0.225-0.225 0.493-0.404 0.787-0.526s0.61-0.185 0.928-0.185c0.319 0 0.634 0.063 0.928 0.185s0.562 0.301 0.787 0.526c0.225 0.225 0.404 0.493 0.526 0.787s0.185 0.61 0.185 0.928c0 0.319-0.063 0.634-0.185 0.928s-0.301 0.562-0.526 0.787l-0.073 0.073c-0.279 0.286-0.467 0.649-0.538 1.042s-0.023 0.799 0.138 1.164v0.097c0.154 0.358 0.409 0.664 0.734 0.88s0.706 0.331 1.096 0.332h0.206c0.643 0 1.26 0.255 1.714 0.71s0.71 1.071 0.71 1.714-0.255 1.26-0.71 1.714c-0.455 0.455-1.071 0.71-1.714 0.71h-0.109c-0.39 0.002-0.771 0.117-1.096 0.333s-0.58 0.521-0.734 0.88z"></path>
</symbol>

<symbol id="icon-trash" viewBox="0 0 32 32">
<path fill="none" stroke="#ef8964" style="stroke: var(--color3, #ef8964)" stroke-linejoin="round" stroke-linecap="round" stroke-miterlimit="4" stroke-width="2.4" d="M12 4h8M13.333 14v6.667M18.667 14v6.667"></path>
<path fill="none" stroke="#ef8964" style="stroke: var(--color3, #ef8964)" stroke-linejoin="round" stroke-linecap="round" stroke-miterlimit="4" stroke-width="2.4" d="M4 8h24M25.333 8l-0.935 14.026c-0.14 2.104-0.21 3.156-0.665 3.954-0.4 0.702-1.004 1.267-1.731 1.62-0.826 0.4-1.881 0.4-3.99 0.4h-4.025c-2.109 0-3.163 0-3.99-0.4-0.727-0.352-1.331-0.917-1.731-1.62-0.455-0.798-0.525-1.85-0.665-3.954l-0.935-14.026"></path>
</symbol>

<symbol id="icon-logout" viewBox="0 0 32 32">
<path stroke-linejoin="round" stroke-linecap="round" stroke-miterlimit="4" stroke-width="2.4" d="M12 4h-1.6c-2.24 0-3.36 0-4.216 0.436-0.753 0.383-1.365 0.995-1.748 1.748-0.436 0.856-0.436 1.976-0.436 4.216v11.2c0 2.24 0 3.36 0.436 4.216 0.383 0.753 0.995 1.364 1.748 1.748 0.856 0.436 1.976 0.436 4.216 0.436h1.6"></path>
<path stroke-linejoin="round" stroke-linecap="round" stroke-miterlimit="4" stroke-width="2.4" d="M21.333 22.667l6.667-6.667M28 16l-6.667-6.667M28 16h-16"></path>
</symbol>

<symbol id="icon-eye" viewBox="0 0 32 32">
<path fill="none" stroke="#efede8" style="stroke: var(--color1, #efede8)" stroke-linejoin="round" stroke-linecap="round" stroke-miterlimit="4" stroke-width="2.88" d="M1.333 16c0 0 5.333-10.667 14.667-10.667s14.667 10.667 14.667 10.667-5.333 10.667-14.667 10.667c-9.333 0-14.667-10.667-14.667-10.667z"></path>
<path fill="none" stroke="#efede8" style="stroke: var(--color1, #efede8)" stroke-linejoin="round" stroke-linecap="round" stroke-miterlimit="4" stroke-width="2.88" d="M16 20c2.209 0 4-1.791 4-4s-1.791-4-4-4c-2.209 0-4 1.791-4 4s1.791 4 4 4z"></path>
</symbol>

<symbol id="icon-eye-off" viewBox="0 0 32 32">
<path fill="none" stroke="#efede8" style="stroke: var(--color1, #efede8)" stroke-linejoin="round" stroke-linecap="round" stroke-miterlimit="4" stroke-width="2.88" d="M23.92 23.92c-2.279 1.737-5.055 2.7-7.92 2.747-9.333 0-14.667-10.667-14.667-10.667 1.659-3.091 3.959-5.791 6.747-7.92M13.2 5.653c0.918-0.215 1.857-0.322 2.8-0.32 9.333 0 14.667 10.667 14.667 10.667-0.809 1.514-1.775 2.94-2.88 4.253M18.827 18.827c-0.366 0.393-0.808 0.708-1.299 0.927s-1.020 0.336-1.557 0.346c-0.537 0.009-1.071-0.089-1.569-0.291s-0.95-0.501-1.33-0.88c-0.38-0.38-0.679-0.832-0.88-1.33s-0.3-1.032-0.29-1.569c0.009-0.537 0.127-1.067 0.346-1.558s0.534-0.932 0.927-1.298"></path>
<path fill="none" stroke="#efede8" style="stroke: var(--color1, #efede8)" stroke-linejoin="round" stroke-linecap="round" stroke-miterlimit="4" stroke-width="2.88" d="M1.333 1.333l29.333 29.333"></path>
</symbol>

<symbol id="icon-pause" viewBox="0 0 33 32">
<path fill="#e6533c" style="fill: var(--color1, #e6533c); stroke: var(--color1, #e6533c)" stroke="#e6533c" stroke-linejoin="round" stroke-linecap="round" stroke-miterlimit="4" stroke-width="1" d="M4.5 10.4c0-2.24 0-3.36 0.436-4.216 0.383-0.753 0.995-1.365 1.748-1.748 0.856-0.436 1.976-0.436 4.216-0.436h11.2c2.24 0 3.36 0 4.216 0.436 0.753 0.383 1.364 0.995 1.748 1.748 0.436 0.856 0.436 1.976 0.436 4.216v11.2c0 2.24 0 3.36-0.436 4.216-0.384 0.753-0.995 1.364-1.748 1.748-0.856 0.436-1.976 0.436-4.216 0.436h-11.2c-2.24 0-3.36 0-4.216-0.436-0.753-0.384-1.365-0.995-1.748-1.748-0.436-0.856-0.436-1.976-0.436-4.216v-11.2z"></path>
<path fill="none" stroke="#efede8" style="stroke: var(--color2, #efede8)" stroke-linejoin="round" stroke-linecap="round" stroke-miterlimit="4" stroke-width="1.3" d="M13.166 20v-8M19.833 20v-8"></path>
</symbol>

<symbol id="icon-play" viewBox="0 0 32 32">
<path fill="#e6533c" style="fill: var(--color1, #e6533c); stroke: var(--color1, #e6533c)" stroke="#e6533c" stroke-linejoin="round" stroke-linecap="round" stroke-miterlimit="4" stroke-width="1" d="M4 10.4c0-2.24 0-3.36 0.436-4.216 0.383-0.753 0.995-1.365 1.748-1.748 0.856-0.436 1.976-0.436 4.216-0.436h11.2c2.24 0 3.36 0 4.216 0.436 0.753 0.383 1.364 0.995 1.748 1.748 0.436 0.856 0.436 1.976 0.436 4.216v11.2c0 2.24 0 3.36-0.436 4.216-0.384 0.753-0.995 1.364-1.748 1.748-0.856 0.436-1.976 0.436-4.216 0.436h-11.2c-2.24 0-3.36 0-4.216-0.436-0.753-0.384-1.365-0.995-1.748-1.748-0.436-0.856-0.436-1.976-0.436-4.216v-11.2z"></path>
<path fill="#efede8" style="fill: var(--color2, #efede8); stroke: var(--color2, #efede8)" stroke="#efede8" stroke-linejoin="round" stroke-linecap="round" stroke-miterlimit="4" stroke-width="1.3" d="M11.917 10.75l8.167 5.25-8.167 5.25v-10.5z"></path>
</symbol>

<symbol id="icon-line" viewBox="0 0 87 32">
<path stroke-linejoin="round" stroke-linecap="round" stroke-miterlimit="4" stroke-width="1.7297" d="M60.717 0.865c-20.169 0.292-64.211 3.812-59.502 21.728 4.232 12.649 64.534 9.932 79.413 0.414s-5.555-19.422-34.037-15.916"></path>
</symbol>

<symbol id="icon-bubble" viewBox="0 0 32 32">
<path d="M20.793 16.346c3.778 0 6.84-3.062 6.84-6.84s-3.062-6.84-6.84-6.84c-3.778 0-6.84 3.062-6.84 6.84s3.062 6.84 6.84 6.84z"></path>
<path d="M8.476 25.919c2.268 0 4.107-1.839 4.107-4.107s-1.839-4.107-4.107-4.107c-2.268 0-4.107 1.839-4.107 4.107s1.839 4.107 4.107 4.107z"></path>
<path d="M22.151 29.332c1.885 0 3.413-1.528 3.413-3.413s-1.528-3.413-3.413-3.413c-1.885 0-3.413 1.528-3.413 3.413s1.528 3.413 3.413 3.413z"></path>
</symbol>

<symbol id="icon-dumbbell" viewBox="0 0 32 32">
<path d="M5.2 8h-2.4c-0.665 0-1.2 0.535-1.2 1.2v5.2h-1.2c-0.22 0-0.4 0.18-0.4 0.4v2.4c0 0.22 0.18 0.4 0.4 0.4h1.2v5.2c0 0.665 0.535 1.2 1.2 1.2h2.4c0.665 0 1.2-0.535 1.2-1.2v-13.6c0-0.665-0.535-1.2-1.2-1.2zM31.6 14.4h-1.2v-5.2c0-0.665-0.535-1.2-1.2-1.2h-2.4c-0.665 0-1.2 0.535-1.2 1.2v13.6c0 0.665 0.535 1.2 1.2 1.2h2.4c0.665 0 1.2-0.535 1.2-1.2v-5.2h1.2c0.22 0 0.4-0.18 0.4-0.4v-2.4c0-0.22-0.18-0.4-0.4-0.4zM22.8 4.8h-2.4c-0.665 0-1.2 0.535-1.2 1.2v8.4h-6.4v-8.4c0-0.665-0.535-1.2-1.2-1.2h-2.4c-0.665 0-1.2 0.535-1.2 1.2v20c0 0.665 0.535 1.2 1.2 1.2h2.4c0.665 0 1.2-0.535 1.2-1.2v-8.4h6.4v8.4c0 0.665 0.535 1.2 1.2 1.2h2.4c0.665 0 1.2-0.535 1.2-1.2v-20c0-0.665-0.535-1.2-1.2-1.2z"></path>
</symbol>

<symbol id="icon-food" viewBox="0 0 32 32">
<path d="M24 4c0.327 0 0.642 0.12 0.886 0.337s0.4 0.516 0.438 0.84l0.009 0.156v21.333c-0 0.34-0.131 0.667-0.364 0.914s-0.552 0.396-0.891 0.416c-0.339 0.020-0.673-0.090-0.934-0.308s-0.428-0.528-0.468-0.865l-0.009-0.156v-6.667h-1.333c-0.327 0-0.642-0.12-0.886-0.337s-0.4-0.516-0.438-0.84l-0.009-0.156v-8c0-2.947 2-6.667 4-6.667zM16 4c0.327 0 0.642 0.12 0.886 0.337s0.4 0.516 0.438 0.84l0.009 0.156v6.667c-0 1.183-0.393 2.331-1.117 3.266s-1.738 1.603-2.883 1.899v9.501c-0 0.34-0.13 0.667-0.364 0.914s-0.552 0.396-0.891 0.416c-0.339 0.020-0.673-0.090-0.934-0.308s-0.428-0.528-0.468-0.865l-0.009-0.156v-9.501c-1.099-0.284-2.079-0.912-2.798-1.791s-1.137-1.965-1.196-3.099l-0.007-0.275v-6.667c0-0.34 0.13-0.667 0.364-0.914s0.552-0.396 0.891-0.416c0.339-0.020 0.673 0.090 0.934 0.309s0.428 0.528 0.468 0.865l0.009 0.156v6.667c0 0.468 0.123 0.928 0.357 1.333s0.571 0.742 0.976 0.976v-8.976c0-0.34 0.13-0.667 0.364-0.914s0.552-0.396 0.891-0.416c0.339-0.020 0.673 0.090 0.934 0.309s0.428 0.528 0.468 0.865l0.009 0.156 0.001 8.976c0.372-0.215 0.687-0.517 0.917-0.88s0.37-0.776 0.406-1.204l0.009-0.225v-6.667c0-0.354 0.14-0.693 0.391-0.943s0.589-0.391 0.943-0.391z"></path>
</symbol>

<symbol id="icon-apple" viewBox="0 0 32 32">
<path d="M19.454 4.758c0.102-0.031 0.198-0.082 0.28-0.151s0.15-0.153 0.199-0.248 0.079-0.199 0.087-0.306c0.008-0.107-0.005-0.214-0.039-0.315s-0.088-0.195-0.159-0.275c-0.071-0.080-0.157-0.146-0.253-0.192s-0.201-0.073-0.308-0.078c-0.107-0.005-0.214 0.011-0.314 0.048-1.501 0.499-2.435 1.731-2.986 3.051-0.074 0.178-0.142 0.359-0.203 0.542-0.3-0.568-0.683-1.087-1.138-1.541-0.615-0.616-1.35-1.1-2.159-1.422s-1.675-0.475-2.546-0.45c-0.928 0.026-1.669 0.768-1.694 1.694-0.025 0.87 0.128 1.737 0.45 2.546s0.806 1.543 1.422 2.159l0.050 0.048c-1.344 0.291-2.559 1.007-3.464 2.042s-1.454 2.334-1.563 3.705l-0.010 0.118c-0.211 2.636 0.35 5.275 1.616 7.597l0.576 1.053c0.016 0.027 0.032 0.054 0.051 0.080l1.6 2.243c0.363 0.508 0.832 0.931 1.374 1.239s1.146 0.495 1.768 0.546c0.622 0.051 1.248-0.033 1.833-0.248s1.118-0.555 1.559-0.996c0.068-0.068 0.148-0.122 0.237-0.158s0.183-0.056 0.279-0.056c0.096 0 0.191 0.019 0.279 0.056s0.169 0.090 0.237 0.158c0.441 0.441 0.973 0.781 1.559 0.996s1.212 0.3 1.833 0.248c0.622-0.052 1.225-0.238 1.768-0.546s1.012-0.731 1.374-1.239l1.6-2.242c0.019-0.026 0.036-0.053 0.051-0.082l0.574-1.053c1.266-2.321 1.827-4.961 1.616-7.597l-0.008-0.118c-0.071-0.884-0.324-1.743-0.745-2.523s-0.998-1.465-1.697-2.010-1.503-0.94-2.362-1.158c-0.859-0.218-1.754-0.256-2.628-0.11l-2.651 0.442c0.016-1.090 0.208-2.315 0.638-3.349 0.448-1.080 1.114-1.848 2.013-2.149h0.002zM11.054 14.358c-0.246 0.078-0.473 0.203-0.67 0.369s-0.359 0.37-0.477 0.599c-0.296 0.557-0.499 1.475-0.312 2.974 0.021 0.208-0.040 0.416-0.17 0.579s-0.319 0.269-0.526 0.295c-0.207 0.026-0.416-0.030-0.583-0.157s-0.277-0.313-0.308-0.519c-0.213-1.702-0.016-2.984 0.488-3.926 0.512-0.96 1.291-1.478 2.053-1.733 0.1-0.033 0.205-0.046 0.31-0.039s0.207 0.036 0.301 0.083c0.094 0.047 0.178 0.112 0.247 0.191s0.121 0.172 0.155 0.271c0.033 0.1 0.046 0.205 0.039 0.31s-0.036 0.207-0.083 0.301c-0.047 0.094-0.112 0.178-0.191 0.247s-0.172 0.121-0.271 0.155z"></path>
</symbol>

<symbol id="icon-burn" viewBox="0 0 32 32">
<path d="M16.001 22.291c-0.946 0.72-2.898 2.5-2.898 4.925 0 1.601 1.3 2.904 2.897 2.904s2.897-1.303 2.897-2.904c0-2.297-1.954-4.161-2.895-4.925z"></path>
<path d="M22.789 5.57c-0.351-0.397-0.958-0.421-1.34-0.064l-4.412 4.117v-8.623c0-0.722-0.87-1.261-1.522-0.867-0.123 0.075-3.055 1.865-6.017 5.116-3.602 3.953-6.055 8.766-6.055 14.164 0 6.941 5.633 12.587 12.557 12.587-2.631 0-4.772-2.146-4.772-4.784 0-4.262 4.138-6.786 4.314-6.891 0.309-0.184 0.695-0.176 0.996 0.022 0.173 0.114 4.234 2.838 4.234 6.869 0 2.638-2.141 4.784-4.772 4.784 6.924 0 12.557-5.647 12.557-12.587 0-5.241-2.313-9.938-5.767-13.843z"></path>
</symbol>

<symbol id="icon-calendar" viewBox="0 0 32 32">
<path  stroke="#efede8" style="stroke: var(--color2, #efede8)" stroke-linejoin="round" stroke-linecap="round" stroke-miterlimit="4" stroke-width="2.6667" d="M10.667 2.667v5.333"></path>
<path  stroke="#efede8" style="stroke: var(--color2, #efede8)" stroke-linejoin="round" stroke-linecap="round" stroke-miterlimit="4" stroke-width="2.6667" d="M21.333 2.667v5.333"></path>
<path  stroke="#efede8" style="stroke: var(--color2, #efede8)" stroke-linejoin="round" stroke-linecap="round" stroke-miterlimit="4" stroke-width="2.6667" d="M25.333 5.333h-18.667c-1.473 0-2.667 1.194-2.667 2.667v18.667c0 1.473 1.194 2.667 2.667 2.667h18.667c1.473 0 2.667-1.194 2.667-2.667v-18.667c0-1.473-1.194-2.667-2.667-2.667z"></path>
<path  stroke="#efede8" style="stroke: var(--color2, #efede8)" stroke-linejoin="round" stroke-linecap="round" stroke-miterlimit="4" stroke-width="2.6667" d="M4 13.333h24"></path>
</symbol>

<symbol id="calendar" viewBox="0 0 32 32">
<path fill="none" stroke="#ef8964" style="stroke: var(--color1, #ef8964)" stroke-linejoin="round" stroke-linecap="round" stroke-miterlimit="4" stroke-width="2.4" d="M25.333 5.333h-18.667c-1.473 0-2.667 1.194-2.667 2.667v18.667c0 1.473 1.194 2.667 2.667 2.667h18.667c1.473 0 2.667-1.194 2.667-2.667v-18.667c0-1.473-1.194-2.667-2.667-2.667z"></path>
<path fill="none" stroke="#ef8964" style="stroke: var(--color1, #ef8964)" stroke-linejoin="round" stroke-linecap="round" stroke-miterlimit="4" stroke-width="2.4" d="M21.333 2.667v5.333"></path>
<path fill="none" stroke="#ef8964" style="stroke: var(--color1, #ef8964)" stroke-linejoin="round" stroke-linecap="round" stroke-miterlimit="4" stroke-width="2.4" d="M10.667 2.667v5.333"></path>
<path fill="none" stroke="#ef8964" style="stroke: var(--color1, #ef8964)" stroke-linejoin="round" stroke-linecap="round" stroke-miterlimit="4" stroke-width="2.4" d="M4 13.333h24"></path>
</symbol>

<symbol id="icon-running" viewBox="0 0 32 32">
<path d="M29.647 9.451c-0.419-0.501-1.166-0.567-1.667-0.149l-3.282 2.757-1.509-3.739c-0.054-0.14-0.135-0.258-0.229-0.362-0.308-0.686-0.844-1.275-1.582-1.617-0.32-0.146-0.652-0.224-0.982-0.262-0.073-0.038-0.139-0.088-0.222-0.114l-5.775-1.61c-0.324-0.088-0.65-0.031-0.917 0.125-0.317 0.107-0.589 0.338-0.719 0.672l-2.175 5.592c-0.236 0.608 0.066 1.294 0.676 1.534 0.607 0.236 1.294-0.068 1.532-0.678l1.837-4.722 2.63 0.731c-0.064 0.104-0.133 0.201-0.185 0.312l-3.372 7.309c-0.049 0.107-0.075 0.217-0.109 0.328l-4.098 6.871-6.859 2.294c-0.776 0.58-0.941 1.674-0.367 2.45 0.577 0.778 1.674 0.943 2.448 0.369l7.018-2.417c0.215-0.156 0.371-0.36 0.489-0.58 0.088-0.094 0.189-0.168 0.256-0.284l2.443-4.096 4.337 3.696-4.641 5.23c-0.639 0.721-0.575 1.832 0.149 2.469 0.723 0.643 1.83 0.575 2.473-0.149l5.791-6.524c0.18-0.201 0.288-0.433 0.36-0.676 0.043-0.132 0.043-0.269 0.054-0.406 0-0.069 0.026-0.132 0.021-0.196-0.016-0.478-0.21-0.943-0.601-1.274l-3.991-3.403c0.288-0.274 0.532-0.6 0.709-0.983l2.585-5.599 0.828 2.206c0.035 0.196 0.1 0.388 0.239 0.549 0.125 0.149 0.284 0.248 0.454 0.317 0.017 0.009 0.038 0.010 0.059 0.016 0.107 0.038 0.216 0.075 0.329 0.080 0.133 0.012 0.269-0.005 0.405-0.043 0.004-0.002 0.005-0.002 0.005-0.002 0.036-0.009 0.073-0.002 0.109-0.017 0.192-0.073 0.34-0.196 0.466-0.34l4.71-3.998c0.501-0.421 0.289-1.166-0.132-1.667z"></path>
<path d="M23.689 6.602c1.823 0 3.301-1.478 3.301-3.301s-1.478-3.301-3.301-3.301c-1.823 0-3.301 1.478-3.301 3.301s1.478 3.301 3.301 3.301z"></path>
</symbol>

<symbol id="icon-checkbox" viewBox="0 0 32 32">
<path d="M16 29.333c-7.364 0-13.333-5.969-13.333-13.333s5.969-13.333 13.333-13.333c7.364 0 13.333 5.969 13.333 13.333s-5.969 13.333-13.333 13.333zM14.459 21.98l9.427-9.428-1.885-1.885-7.541 7.543-3.772-3.772-1.885 1.885 5.657 5.657z"></path>
</symbol>

<symbol id="icon-logo-text" viewBox="0 0 202 32">
<path fill="#efede8" style="fill: var(--color1, #efede8)" d="M0 30.266v-27.099h10.14c1.541 0 2.934 0.368 4.178 1.103 1.257 0.736 2.251 1.723 2.981 2.962s1.095 2.6 1.095 4.084c0 1.523-0.379 2.903-1.136 4.142-0.744 1.226-1.744 2.207-3.002 2.942-1.257 0.723-2.63 1.084-4.117 1.084h-5.192v10.782h-4.948zM4.948 14.761h4.665c0.703 0 1.345-0.168 1.927-0.503s1.041-0.787 1.379-1.355c0.352-0.568 0.527-1.2 0.527-1.897 0-0.71-0.176-1.349-0.527-1.916-0.338-0.568-0.798-1.019-1.379-1.355s-1.224-0.503-1.927-0.503h-4.665v7.53z"></path>
<path fill="#efede8" style="fill: var(--color1, #efede8)" d="M29.64 30.769c-1.866 0-3.569-0.458-5.111-1.374-1.528-0.916-2.751-2.142-3.671-3.678-0.906-1.549-1.359-3.258-1.359-5.13 0-1.419 0.264-2.742 0.791-3.968 0.527-1.239 1.251-2.323 2.17-3.252 0.933-0.942 2.015-1.678 3.245-2.207s2.542-0.794 3.934-0.794c1.866 0 3.563 0.458 5.090 1.374 1.541 0.916 2.765 2.149 3.671 3.697 0.919 1.549 1.379 3.265 1.379 5.149 0 1.407-0.264 2.723-0.791 3.949s-1.257 2.31-2.19 3.252c-0.919 0.929-1.994 1.658-3.225 2.187-1.217 0.529-2.528 0.794-3.935 0.794zM29.64 26.046c0.987 0 1.873-0.252 2.657-0.755s1.399-1.168 1.846-1.994c0.46-0.826 0.689-1.729 0.689-2.71 0-1.007-0.237-1.923-0.71-2.749-0.46-0.839-1.088-1.503-1.886-1.994-0.784-0.503-1.649-0.755-2.596-0.755-0.973 0-1.852 0.252-2.636 0.755s-1.406 1.174-1.866 2.013c-0.46 0.839-0.69 1.749-0.69 2.729 0 1.019 0.237 1.942 0.71 2.768s1.102 1.484 1.886 1.974c0.798 0.478 1.663 0.716 2.596 0.716z"></path>
<path fill="#efede8" style="fill: var(--color1, #efede8)" d="M52.452 30.266h-4.908l-6.774-19.357h4.847l4.401 12.524 4.381-12.524h4.888l4.381 12.524 4.401-12.524h4.847l-6.774 19.357h-4.908l-4.401-12.582-4.381 12.582z"></path>
<path fill="#efede8" style="fill: var(--color1, #efede8)" d="M84.064 30.769c-1.866 0-3.569-0.458-5.111-1.374-1.528-0.916-2.752-2.149-3.671-3.697-0.906-1.549-1.359-3.258-1.359-5.13 0-1.407 0.264-2.723 0.791-3.949 0.527-1.239 1.251-2.323 2.17-3.252 0.933-0.942 2.015-1.678 3.245-2.207s2.542-0.794 3.935-0.794c1.582 0 3.029 0.323 4.34 0.968 1.325 0.632 2.447 1.503 3.367 2.613s1.589 2.374 2.008 3.794c0.419 1.419 0.514 2.904 0.284 4.452h-14.825c0.189 0.723 0.5 1.374 0.933 1.955 0.433 0.568 0.98 1.026 1.643 1.374 0.662 0.335 1.413 0.51 2.251 0.523 0.865 0.013 1.649-0.181 2.353-0.581 0.717-0.413 1.311-0.968 1.785-1.665l5.050 1.123c-0.825 1.716-2.055 3.123-3.691 4.22-1.636 1.084-3.468 1.626-5.496 1.626zM79.075 18.652h9.978c-0.149-0.774-0.466-1.471-0.953-2.091-0.473-0.632-1.061-1.136-1.764-1.51s-1.46-0.561-2.272-0.561-1.562 0.187-2.251 0.561c-0.689 0.361-1.278 0.858-1.764 1.49-0.473 0.619-0.798 1.323-0.974 2.11z"></path>
<path fill="#efede8" style="fill: var(--color1, #efede8)" d="M97.383 30.266l-0.020-19.357h4.948l0.020 1.723c0.689-0.697 1.514-1.245 2.474-1.645 0.96-0.413 1.994-0.619 3.103-0.619 0.744 0 1.487 0.103 2.231 0.31l-1.947 4.762c-0.514-0.194-1.027-0.29-1.541-0.29-0.798 0-1.528 0.187-2.19 0.561-0.649 0.361-1.169 0.858-1.562 1.491-0.379 0.619-0.568 1.31-0.568 2.071v10.995h-4.948z"></path>
<path fill="#efede8" style="fill: var(--color1, #efede8)" d="M112.415 30.266v-27.099h10.14c1.541 0 2.934 0.368 4.178 1.103 1.257 0.736 2.251 1.723 2.981 2.962s1.095 2.6 1.095 4.084c0 1.523-0.379 2.903-1.136 4.142-0.744 1.226-1.744 2.207-3.002 2.942-1.257 0.723-2.63 1.084-4.117 1.084h-5.192v10.782h-4.948zM117.363 14.761h4.665c0.703 0 1.345-0.168 1.927-0.503s1.041-0.787 1.379-1.355c0.352-0.568 0.527-1.2 0.527-1.897 0-0.71-0.176-1.349-0.527-1.916-0.338-0.568-0.798-1.019-1.379-1.355s-1.224-0.503-1.927-0.503h-4.665v7.53z"></path>
<path fill="#efede8" style="fill: var(--color1, #efede8)" d="M132.914 23.104v-12.195h4.948v10.956c0 0.761 0.196 1.458 0.588 2.091 0.392 0.619 0.913 1.116 1.562 1.491 0.663 0.361 1.386 0.542 2.17 0.542 0.811 0 1.541-0.181 2.19-0.542 0.649-0.374 1.169-0.871 1.562-1.491 0.392-0.632 0.588-1.329 0.588-2.091v-10.956h4.948l0.020 19.357h-4.948l-0.020-1.761c-0.703 0.697-1.535 1.252-2.495 1.665-0.96 0.4-1.988 0.6-3.083 0.6-1.474 0-2.819-0.342-4.036-1.026-1.217-0.697-2.19-1.619-2.92-2.768-0.717-1.161-1.075-2.452-1.075-3.871z"></path>
<path fill="#efede8" style="fill: var(--color1, #efede8)" d="M155.669 30.266v-29.035h4.948v29.035h-4.948z"></path>
<path fill="#efede8" style="fill: var(--color1, #efede8)" d="M171.475 30.614c-1.055-0.064-2.075-0.265-3.062-0.6-0.973-0.348-1.839-0.819-2.596-1.413s-1.339-1.303-1.744-2.129l4.178-1.703c0.162 0.258 0.426 0.535 0.791 0.832 0.365 0.284 0.798 0.523 1.298 0.716 0.514 0.194 1.075 0.29 1.683 0.29 0.514 0 1-0.064 1.46-0.193 0.473-0.142 0.852-0.355 1.136-0.639 0.297-0.284 0.446-0.652 0.446-1.104 0-0.477-0.176-0.845-0.527-1.103-0.338-0.271-0.771-0.471-1.298-0.6-0.514-0.142-1.014-0.271-1.501-0.387-1.284-0.245-2.481-0.626-3.59-1.142-1.095-0.516-1.981-1.181-2.657-1.994-0.662-0.826-0.994-1.82-0.994-2.981 0-1.278 0.351-2.381 1.055-3.31 0.717-0.929 1.643-1.645 2.778-2.149 1.149-0.503 2.386-0.755 3.711-0.755 1.609 0 3.083 0.323 4.421 0.968 1.352 0.632 2.42 1.529 3.204 2.691l-3.914 2.207c-0.189-0.31-0.453-0.594-0.791-0.852-0.338-0.271-0.723-0.49-1.156-0.658-0.433-0.181-0.886-0.284-1.359-0.31-0.608-0.026-1.163 0.026-1.663 0.155s-0.906 0.348-1.217 0.658c-0.298 0.31-0.446 0.723-0.446 1.239 0 0.49 0.203 0.858 0.608 1.103 0.406 0.232 0.892 0.413 1.46 0.542 0.581 0.129 1.136 0.271 1.663 0.426 1.19 0.374 2.305 0.832 3.346 1.374 1.055 0.542 1.9 1.207 2.535 1.994s0.94 1.729 0.912 2.826c0 1.252-0.392 2.349-1.176 3.291-0.784 0.929-1.798 1.639-3.042 2.129-1.23 0.49-2.548 0.684-3.955 0.581z"></path>
<path fill="#efede8" style="fill: var(--color1, #efede8)" d="M191.726 30.769c-1.866 0-3.569-0.458-5.111-1.374-1.528-0.916-2.751-2.149-3.671-3.697-0.906-1.549-1.359-3.258-1.359-5.13 0-1.407 0.264-2.723 0.791-3.949 0.527-1.239 1.251-2.323 2.17-3.252 0.933-0.942 2.015-1.678 3.245-2.207s2.542-0.794 3.935-0.794c1.582 0 3.028 0.323 4.34 0.968 1.325 0.632 2.447 1.503 3.367 2.613s1.589 2.374 2.008 3.794c0.419 1.419 0.514 2.904 0.284 4.452h-14.825c0.189 0.723 0.5 1.374 0.933 1.955 0.433 0.568 0.98 1.026 1.643 1.374 0.662 0.335 1.413 0.51 2.251 0.523 0.865 0.013 1.649-0.181 2.352-0.581 0.717-0.413 1.311-0.968 1.785-1.665l5.050 1.123c-0.825 1.716-2.055 3.123-3.691 4.22-1.636 1.084-3.468 1.626-5.496 1.626zM186.737 18.652h9.978c-0.149-0.774-0.466-1.471-0.953-2.091-0.473-0.632-1.061-1.136-1.764-1.51s-1.46-0.561-2.271-0.561c-0.811 0-1.562 0.187-2.251 0.561-0.69 0.361-1.278 0.858-1.764 1.49-0.473 0.619-0.798 1.323-0.974 2.11z"></path>
</symbol>

<symbol id="icon-logo-text-mob" viewBox="0 0 188 32">
<path fill="#efede8" style="fill: var(--color1, #efede8)" d="M0 29.873v-26.353h9.412c1.431 0 2.723 0.358 3.878 1.073 1.167 0.715 2.089 1.675 2.767 2.88s1.016 2.529 1.016 3.972c0 1.481-0.351 2.824-1.054 4.028-0.69 1.192-1.619 2.146-2.786 2.861-1.167 0.703-2.441 1.054-3.821 1.054h-4.819v10.485h-4.593zM4.593 14.795h4.329c0.653 0 1.249-0.163 1.788-0.489s0.966-0.765 1.28-1.318c0.326-0.552 0.489-1.167 0.489-1.845 0-0.69-0.163-1.311-0.489-1.864-0.314-0.552-0.74-0.991-1.28-1.318s-1.136-0.489-1.788-0.489h-4.329v7.322z"></path>
<path fill="#efede8" style="fill: var(--color1, #efede8)" d="M27.51 30.362c-1.732 0-3.313-0.446-4.744-1.336-1.418-0.891-2.554-2.083-3.407-3.576-0.841-1.506-1.261-3.169-1.261-4.988 0-1.38 0.245-2.667 0.734-3.859 0.489-1.205 1.161-2.259 2.014-3.162 0.866-0.916 1.87-1.631 3.012-2.146s2.359-0.772 3.652-0.772c1.732 0 3.307 0.445 4.725 1.336 1.431 0.891 2.566 2.089 3.407 3.595 0.853 1.506 1.28 3.175 1.28 5.007 0 1.368-0.245 2.648-0.734 3.84s-1.167 2.246-2.033 3.162c-0.853 0.904-1.851 1.613-2.993 2.127-1.129 0.514-2.347 0.772-3.652 0.772zM27.51 25.769c0.916 0 1.738-0.245 2.466-0.734s1.299-1.136 1.713-1.939c0.427-0.803 0.64-1.681 0.64-2.635 0-0.979-0.219-1.87-0.659-2.673-0.427-0.816-1.010-1.462-1.751-1.939-0.728-0.489-1.531-0.734-2.409-0.734-0.904 0-1.719 0.245-2.447 0.734s-1.305 1.142-1.732 1.958c-0.427 0.816-0.64 1.7-0.64 2.654 0 0.991 0.22 1.889 0.659 2.692s1.023 1.443 1.751 1.92c0.741 0.464 1.544 0.696 2.409 0.696z"></path>
<path fill="#efede8" style="fill: var(--color1, #efede8)" d="M48.683 29.873h-4.555l-6.287-18.824h4.499l4.085 12.179 4.066-12.179h4.536l4.066 12.179 4.085-12.179h4.499l-6.287 18.824h-4.555l-4.085-12.235-4.066 12.235z"></path>
<path fill="#efede8" style="fill: var(--color1, #efede8)" d="M78.025 30.362c-1.732 0-3.313-0.446-4.744-1.336-1.418-0.891-2.554-2.089-3.407-3.595-0.841-1.506-1.261-3.169-1.261-4.988 0-1.368 0.245-2.648 0.734-3.84 0.489-1.205 1.161-2.259 2.014-3.162 0.866-0.916 1.87-1.631 3.012-2.146s2.359-0.772 3.652-0.772c1.468 0 2.811 0.314 4.028 0.941 1.23 0.615 2.271 1.462 3.125 2.541s1.474 2.309 1.864 3.689c0.389 1.38 0.477 2.824 0.264 4.329h-13.76c0.176 0.703 0.464 1.336 0.866 1.901 0.401 0.552 0.91 0.998 1.525 1.336 0.615 0.326 1.311 0.496 2.089 0.508 0.803 0.013 1.531-0.176 2.184-0.565 0.665-0.401 1.217-0.941 1.656-1.619l4.687 1.092c-0.766 1.669-1.908 3.037-3.426 4.104-1.519 1.054-3.219 1.581-5.101 1.581zM73.394 18.579h9.261c-0.138-0.753-0.433-1.431-0.885-2.033-0.439-0.615-0.985-1.104-1.638-1.468s-1.355-0.546-2.108-0.546-1.449 0.182-2.089 0.546c-0.64 0.351-1.186 0.835-1.638 1.449-0.439 0.602-0.741 1.286-0.904 2.052z"></path>
<path fill="#efede8" style="fill: var(--color1, #efede8)" d="M90.386 29.873l-0.019-18.824h4.593l0.019 1.675c0.64-0.678 1.406-1.211 2.296-1.6 0.891-0.402 1.851-0.602 2.88-0.602 0.69 0 1.38 0.1 2.071 0.301l-1.807 4.631c-0.477-0.188-0.954-0.282-1.431-0.282-0.74 0-1.418 0.182-2.033 0.546-0.602 0.351-1.086 0.834-1.449 1.449-0.351 0.602-0.527 1.274-0.527 2.014v10.692h-4.593z"></path>
<path fill="#efede8" style="fill: var(--color1, #efede8)" d="M104.338 29.873v-26.353h9.412c1.431 0 2.723 0.358 3.878 1.073 1.167 0.715 2.089 1.675 2.767 2.88s1.016 2.529 1.016 3.972c0 1.481-0.351 2.824-1.054 4.028-0.69 1.192-1.619 2.146-2.786 2.861-1.167 0.703-2.441 1.054-3.821 1.054h-4.819v10.485h-4.593zM108.931 14.795h4.329c0.653 0 1.249-0.163 1.788-0.489s0.966-0.765 1.28-1.318c0.326-0.552 0.489-1.167 0.489-1.845 0-0.69-0.163-1.311-0.489-1.864-0.314-0.552-0.74-0.991-1.28-1.318s-1.136-0.489-1.788-0.489h-4.329v7.322z"></path>
<path fill="#efede8" style="fill: var(--color1, #efede8)" d="M123.365 22.908v-11.859h4.593v10.654c0 0.74 0.182 1.418 0.546 2.033 0.364 0.602 0.847 1.086 1.449 1.449 0.615 0.351 1.286 0.527 2.014 0.527 0.753 0 1.431-0.176 2.033-0.527 0.602-0.364 1.086-0.847 1.449-1.449 0.364-0.615 0.546-1.293 0.546-2.033v-10.654h4.593l0.019 18.824h-4.593l-0.019-1.713c-0.653 0.678-1.424 1.217-2.315 1.619-0.891 0.389-1.845 0.584-2.861 0.584-1.368 0-2.616-0.333-3.746-0.998-1.129-0.678-2.033-1.575-2.711-2.692-0.665-1.129-0.998-2.384-0.998-3.765z"></path>
<path fill="#efede8" style="fill: var(--color1, #efede8)" d="M144.485 29.873v-28.235h4.593v28.235h-4.593z"></path>
<path fill="#efede8" style="fill: var(--color1, #efede8)" d="M159.156 30.212c-0.979-0.063-1.926-0.257-2.842-0.584-0.904-0.339-1.707-0.797-2.409-1.374s-1.242-1.267-1.619-2.071l3.878-1.656c0.151 0.251 0.395 0.521 0.734 0.809 0.339 0.276 0.74 0.508 1.205 0.696 0.477 0.188 0.998 0.282 1.562 0.282 0.477 0 0.929-0.063 1.355-0.188 0.439-0.138 0.791-0.345 1.054-0.621 0.276-0.276 0.414-0.634 0.414-1.073 0-0.464-0.163-0.822-0.489-1.073-0.314-0.264-0.715-0.458-1.205-0.584-0.477-0.138-0.941-0.264-1.393-0.376-1.192-0.238-2.303-0.609-3.332-1.111-1.016-0.502-1.839-1.148-2.466-1.939-0.615-0.803-0.922-1.769-0.922-2.899 0-1.242 0.326-2.315 0.979-3.219 0.665-0.904 1.525-1.6 2.579-2.089 1.067-0.489 2.215-0.734 3.445-0.734 1.493 0 2.861 0.314 4.104 0.941 1.255 0.615 2.246 1.487 2.974 2.616l-3.633 2.146c-0.176-0.301-0.421-0.577-0.734-0.828-0.314-0.264-0.671-0.477-1.073-0.64-0.402-0.176-0.822-0.276-1.261-0.301-0.565-0.025-1.079 0.025-1.544 0.151s-0.841 0.339-1.129 0.64c-0.276 0.301-0.414 0.703-0.414 1.205 0 0.477 0.188 0.834 0.565 1.073 0.376 0.226 0.828 0.402 1.355 0.527 0.539 0.125 1.054 0.264 1.544 0.414 1.104 0.364 2.139 0.809 3.106 1.336 0.979 0.527 1.763 1.173 2.353 1.939s0.872 1.681 0.847 2.748c0 1.217-0.364 2.284-1.092 3.2-0.728 0.904-1.669 1.594-2.824 2.071-1.142 0.477-2.366 0.665-3.671 0.565z"></path>
<path fill="#efede8" style="fill: var(--color1, #efede8)" d="M177.951 30.362c-1.732 0-3.313-0.446-4.744-1.336-1.418-0.891-2.554-2.089-3.407-3.595-0.841-1.506-1.261-3.169-1.261-4.988 0-1.368 0.245-2.648 0.734-3.84 0.489-1.205 1.161-2.259 2.014-3.162 0.866-0.916 1.87-1.631 3.012-2.146s2.359-0.772 3.652-0.772c1.468 0 2.811 0.314 4.028 0.941 1.23 0.615 2.271 1.462 3.125 2.541s1.475 2.309 1.864 3.689c0.389 1.38 0.477 2.824 0.264 4.329h-13.76c0.176 0.703 0.464 1.336 0.866 1.901 0.402 0.552 0.91 0.998 1.525 1.336 0.615 0.326 1.311 0.496 2.089 0.508 0.803 0.013 1.531-0.176 2.184-0.565 0.665-0.401 1.217-0.941 1.656-1.619l4.687 1.092c-0.766 1.669-1.907 3.037-3.426 4.104-1.518 1.054-3.219 1.581-5.101 1.581zM173.321 18.579h9.261c-0.138-0.753-0.433-1.431-0.885-2.033-0.439-0.615-0.985-1.104-1.638-1.468s-1.355-0.546-2.108-0.546-1.449 0.182-2.089 0.546c-0.64 0.351-1.186 0.835-1.638 1.449-0.439 0.602-0.74 1.286-0.904 2.052z"></path>
</symbol>

<symbol id="icon-logo" viewBox="0 0 89 32">
<path fill="#e6533c" style="fill: var(--color2, #e6533c)" d="M86.33 13.714c1.263 0 2.286 1.023 2.286 2.286s-1.023 2.286-2.286 2.286h-1.582c-1.359 0-2.462 1.102-2.462 2.462v4.22c0 1.359-1.102 2.462-2.462 2.462h-1.583c-1.262 0-2.286 1.023-2.286 2.286s-1.023 2.286-2.286 2.286h-4.747c-1.359 0-2.462-1.102-2.462-2.462v-8.791c0-1.359-1.102-2.462-2.462-2.462h-39.385c-1.359 0-2.462 1.102-2.462 2.462v8.791c0 1.36-1.102 2.462-2.462 2.462h-4.747c-1.262 0-2.286-1.023-2.286-2.286s-1.023-2.286-2.286-2.286h-1.582c-1.359 0-2.462-1.102-2.462-2.462v-4.22c0-1.359-1.102-2.462-2.462-2.462h-1.582c-1.262 0-2.286-1.023-2.286-2.286s1.023-2.286 2.286-2.286h1.582c1.359 0 2.462-1.102 2.462-2.462v-4.22c0-1.359 1.102-2.462 2.462-2.462h1.582c1.262 0 2.286-1.023 2.286-2.286s1.023-2.286 2.286-2.286h4.747c1.359 0 2.462 1.102 2.462 2.462v8.791c0 1.359 1.102 2.462 2.462 2.462h39.385c1.359 0 2.462-1.102 2.462-2.462v-8.791c0-1.359 1.102-2.462 2.462-2.462h4.747c1.262 0 2.286 1.023 2.286 2.286s1.023 2.286 2.286 2.286h1.583c1.359 0 2.462 1.102 2.462 2.462v4.22c0 1.359 1.102 2.462 2.462 2.462h1.582z"></path>
</symbol>

<symbol id="icon-logo2" viewBox="0 0 89 32">
<path d="M86.33 13.714c1.263 0 2.286 1.023 2.286 2.286s-1.023 2.286-2.286 2.286h-1.582c-1.359 0-2.462 1.102-2.462 2.462v4.22c0 1.359-1.102 2.462-2.462 2.462h-1.583c-1.262 0-2.286 1.023-2.286 2.286s-1.023 2.286-2.286 2.286h-4.747c-1.359 0-2.462-1.102-2.462-2.462v-8.791c0-1.359-1.102-2.462-2.462-2.462h-39.385c-1.359 0-2.462 1.102-2.462 2.462v8.791c0 1.36-1.102 2.462-2.462 2.462h-4.747c-1.262 0-2.286-1.023-2.286-2.286s-1.023-2.286-2.286-2.286h-1.582c-1.359 0-2.462-1.102-2.462-2.462v-4.22c0-1.359-1.102-2.462-2.462-2.462h-1.582c-1.262 0-2.286-1.023-2.286-2.286s1.023-2.286 2.286-2.286h1.582c1.359 0 2.462-1.102 2.462-2.462v-4.22c0-1.359 1.102-2.462 2.462-2.462h1.582c1.262 0 2.286-1.023 2.286-2.286s1.023-2.286 2.286-2.286h4.747c1.359 0 2.462 1.102 2.462 2.462v8.791c0 1.359 1.102 2.462 2.462 2.462h39.385c1.359 0 2.462-1.102 2.462-2.462v-8.791c0-1.359 1.102-2.462 2.462-2.462h4.747c1.262 0 2.286 1.023 2.286 2.286s1.023 2.286 2.286 2.286h1.583c1.359 0 2.462 1.102 2.462 2.462v4.22c0 1.359 1.102 2.462 2.462 2.462h1.582z"></path>
</symbol>

<symbol id="icon-logo-mob" viewBox="0 0 83 32">
<path fill="#e6533c" style="fill: var(--color2, #e6533c)" d="M80.941 13.714c1.040 0 1.882 0.843 1.882 1.882v0.807c0 1.040-0.843 1.882-1.882 1.882h-2.151c-1.039 0-1.882 0.843-1.882 1.882v5.378c0 1.040-0.843 1.882-1.882 1.882h-2.151c-1.040 0-1.882 0.843-1.882 1.882v0.807c0 1.040-0.843 1.882-1.882 1.882h-5.109c-1.040 0-1.882-0.843-1.882-1.882v-9.95c0-1.040-0.843-1.882-1.882-1.882h-37.647c-1.040 0-1.882 0.843-1.882 1.882v9.95c0 1.040-0.843 1.882-1.882 1.882h-5.109c-1.040 0-1.882-0.843-1.882-1.882v-0.807c0-1.040-0.843-1.882-1.882-1.882h-2.151c-1.040 0-1.882-0.843-1.882-1.882v-5.378c0-1.040-0.843-1.882-1.882-1.882h-2.151c-1.040 0-1.882-0.843-1.882-1.882v-0.807c0-1.040 0.843-1.882 1.882-1.882h2.151c1.040 0 1.882-0.843 1.882-1.882v-5.378c0-1.040 0.843-1.882 1.882-1.882h2.151c1.040 0 1.882-0.843 1.882-1.882v-0.807c0-1.040 0.843-1.882 1.882-1.882h5.109c1.040 0 1.882 0.843 1.882 1.882v9.95c0 1.040 0.843 1.882 1.882 1.882h37.647c1.040 0 1.882-0.843 1.882-1.882v-9.95c0-1.040 0.843-1.882 1.882-1.882h5.109c1.040 0 1.882 0.843 1.882 1.882v0.807c0 1.040 0.843 1.882 1.882 1.882h2.151c1.040 0 1.882 0.843 1.882 1.882v5.378c0 1.040 0.843 1.882 1.882 1.882h2.151z"></path>
</symbol>

<symbol id="icon-close" viewBox="0 0 32 32">
<path stroke-linejoin="round" stroke-linecap="round" stroke-miterlimit="4" stroke-width="2.6667" d="M24 8l-16 16M8 8l16 16"></path>
</symbol>

<symbol id="icon-menu" viewBox="0 0 32 32">
<path fill="none" stroke="#e6533c" style="stroke: var(--color1, #e6533c)" stroke-linejoin="round" stroke-linecap="round" stroke-miterlimit="4" stroke-width="2.6667" d="M4 16h16M4 8h24M4 24h24"></path>
</symbol>

<symbol id="locationarrow" viewBox="0 0 32 32">
<path fill="none" stroke-linejoin="round" stroke-linecap="round" stroke-miterlimit="4" stroke-width="2.6" d="M15 28l13-13M28 15l-13-13M28 15h-26"></path>
</symbol>

<symbol id="icon-warning" viewBox="0 0 32 32">
<path fill="none" stroke="#efede8" style="stroke: var(--color2, #efede8)" stroke-linejoin="round" stroke-linecap="round" stroke-miterlimit="4" stroke-width="4" d="M16 30v0.020M16 22v-20"></path>
</symbol>

<symbol id="icon-right" viewBox="0 0 32 32">
<path fill="#efede8" style="fill: var(--color1, #efede8)" d="M10.914 29.914l-2.828-2.829 11.586-11.586-11.586-11.586 2.828-2.828 14.414 14.414-14.414 14.414z"></path>
</symbol>

<symbol id="icon-left" viewBox="0 0 32 32">
<path fill="#efede8" style="fill: var(--color1, #efede8)" d="M21.086 1.086l2.828 2.828-11.586 11.586 11.586 11.586-2.828 2.829-14.414-14.414 14.414-14.414z"></path>
</symbol>

<symbol id="user" viewBox="0 0 32 32">
<path fill="rgba(48, 48, 48, 0.3)" style="fill: var(--color2, #efede8)" opacity="0.1" d="M16 0c2.122 0 4.157 0.843 5.657 2.343s2.343 3.535 2.343 5.657-0.843 4.157-2.343 5.657c-1.5 1.5-3.535 2.343-5.657 2.343s-4.157-0.843-5.657-2.343c-1.5-1.5-2.343-3.535-2.343-5.657s0.843-4.157 2.343-5.657c1.5-1.5 3.535-2.343 5.657-2.343zM16 32c0 0 16 0 16-4 0-4.8-7.8-10-16-10s-16 5.2-16 10c0 4 16 4 16 4z"></path>
</symbol>

<symbol id="add" viewBox="0 0 32 32">
<path d="M10.898 0.9l4.548 1.315c0.329 0.095 0.678 0.096 1.007 0.002l4.684-1.333c0.82-0.233 1.691 0.131 2.101 0.879l2.43 4.439c0.163 0.298 0.406 0.544 0.701 0.712l3.865 2.189c0.748 0.424 1.099 1.311 0.843 2.132l-1.339 4.294c-0.11 0.352-0.11 0.729-0.002 1.081l1.352 4.384c0.25 0.81-0.091 1.686-0.823 2.114l-4.309 2.519c-0.294 0.172-0.534 0.423-0.693 0.724l-2.049 3.882c-0.396 0.751-1.259 1.13-2.080 0.913l-4.716-1.245c-0.308-0.081-0.631-0.081-0.939 0.002l-4.572 1.226c-0.84 0.225-1.723-0.174-2.109-0.953l-2.043-4.127c-0.171-0.346-0.448-0.63-0.791-0.808l-4.174-2.179c-0.762-0.398-1.143-1.275-0.915-2.104l1.217-4.41c0.086-0.312 0.088-0.642 0.004-0.955l-1.249-4.696c-0.215-0.808 0.146-1.658 0.877-2.064l4.288-2.385c0.312-0.173 0.566-0.435 0.731-0.751l2.026-3.885c0.402-0.77 1.291-1.151 2.126-0.909z"></path>
<path fill="none" stroke="#efede8" style="stroke: var(--color2, #efede8)" stroke-linejoin="round" stroke-linecap="round" stroke-miterlimit="4" stroke-width="1.9394" d="M16 10.909v10.182"></path>
<path fill="none" stroke="#efede8" style="stroke: var(--color2, #efede8)" stroke-linejoin="round" stroke-linecap="round" stroke-miterlimit="4" stroke-width="1.9394" d="M10.909 16h10.182"></path>
</symbol>

<symbol id="food" viewBox="0 0 32 32">
<path fill="#ef8964" style="fill: var(--color3, #ef8964)" d="M24 4c0.327 0 0.642 0.12 0.886 0.337s0.4 0.516 0.438 0.84l0.009 0.156v21.333c-0 0.34-0.131 0.667-0.364 0.914s-0.552 0.396-0.891 0.416c-0.339 0.020-0.673-0.090-0.934-0.308s-0.428-0.528-0.468-0.865l-0.009-0.156v-6.667h-1.333c-0.327 0-0.642-0.12-0.886-0.337s-0.4-0.516-0.438-0.84l-0.009-0.156v-8c0-2.947 2-6.667 4-6.667zM16 4c0.327 0 0.642 0.12 0.886 0.337s0.4 0.516 0.438 0.84l0.009 0.156v6.667c-0 1.183-0.393 2.331-1.117 3.266s-1.738 1.603-2.883 1.899v9.501c-0 0.34-0.13 0.667-0.364 0.914s-0.552 0.396-0.891 0.416c-0.339 0.020-0.673-0.090-0.934-0.308s-0.428-0.528-0.468-0.865l-0.009-0.156v-9.501c-1.099-0.284-2.079-0.912-2.798-1.791s-1.137-1.965-1.196-3.099l-0.007-0.275v-6.667c0-0.34 0.13-0.667 0.364-0.914s0.552-0.396 0.891-0.416c0.339-0.020 0.673 0.090 0.934 0.309s0.428 0.528 0.468 0.865l0.009 0.156v6.667c0 0.468 0.123 0.928 0.357 1.333s0.571 0.742 0.976 0.976v-8.976c0-0.34 0.13-0.667 0.364-0.914s0.552-0.396 0.891-0.416c0.339-0.020 0.673 0.090 0.934 0.309s0.428 0.528 0.468 0.865l0.009 0.156 0.001 8.976c0.372-0.215 0.687-0.517 0.917-0.88s0.37-0.776 0.406-1.204l0.009-0.225v-6.667c0-0.354 0.14-0.693 0.391-0.943s0.589-0.391 0.943-0.391z"></path>
</symbol>

<symbol id="dumbbell" viewBox="0 0 32 32">
<path fill="#ef8964" style="fill: var(--color3, #ef8964)" d="M5.2 8h-2.4c-0.665 0-1.2 0.535-1.2 1.2v5.2h-1.2c-0.22 0-0.4 0.18-0.4 0.4v2.4c0 0.22 0.18 0.4 0.4 0.4h1.2v5.2c0 0.665 0.535 1.2 1.2 1.2h2.4c0.665 0 1.2-0.535 1.2-1.2v-13.6c0-0.665-0.535-1.2-1.2-1.2zM31.6 14.4h-1.2v-5.2c0-0.665-0.535-1.2-1.2-1.2h-2.4c-0.665 0-1.2 0.535-1.2 1.2v13.6c0 0.665 0.535 1.2 1.2 1.2h2.4c0.665 0 1.2-0.535 1.2-1.2v-5.2h1.2c0.22 0 0.4-0.18 0.4-0.4v-2.4c0-0.22-0.18-0.4-0.4-0.4zM22.8 4.8h-2.4c-0.665 0-1.2 0.535-1.2 1.2v8.4h-6.4v-8.4c0-0.665-0.535-1.2-1.2-1.2h-2.4c-0.665 0-1.2 0.535-1.2 1.2v20c0 0.665 0.535 1.2 1.2 1.2h2.4c0.665 0 1.2-0.535 1.2-1.2v-8.4h6.4v8.4c0 0.665 0.535 1.2 1.2 1.2h2.4c0.665 0 1.2-0.535 1.2-1.2v-20c0-0.665-0.535-1.2-1.2-1.2z"></path>
</symbol>

<symbol id="runningman" viewBox="0 0 32 32">
<path fill="#efa082" style="fill: var(--color1, #efa082)" d="M32 16c0 8.837-7.163 16-16 16s-16-7.163-16-16c0-8.837 7.163-16 16-16s16 7.163 16 16z"></path>
<path fill="#efede8" style="fill: var(--color2, #efede8)" d="M25.097 11.633c-0.146-0.173-0.363-0.282-0.605-0.282-0.193 0-0.37 0.069-0.507 0.184l0.001-0.001-2.188 1.837-1.007-2.493c-0.038-0.093-0.089-0.172-0.152-0.24l0 0c-0.214-0.478-0.583-0.855-1.042-1.073l-0.013-0.006c-0.191-0.087-0.413-0.148-0.645-0.173l-0.009-0.001c-0.049-0.027-0.093-0.060-0.148-0.077l-3.851-1.073c-0.062-0.017-0.133-0.027-0.206-0.027-0.149 0-0.289 0.041-0.408 0.113l0.004-0.002c-0.22 0.072-0.393 0.235-0.478 0.443l-0.002 0.005-1.449 3.728c-0.034 0.085-0.053 0.182-0.053 0.285 0 0.334 0.206 0.619 0.498 0.736l0.005 0.002c0.084 0.033 0.182 0.053 0.284 0.053 0.334 0 0.62-0.207 0.736-0.501l0.002-0.005 1.224-3.147 1.753 0.487c-0.043 0.069-0.088 0.135-0.123 0.208l-2.249 4.873c-0.032 0.072-0.049 0.144-0.072 0.219l-2.733 4.58-4.571 1.529c-0.289 0.215-0.475 0.556-0.475 0.94 0 0.645 0.523 1.168 1.168 1.168 0.261 0 0.502-0.086 0.696-0.23l-0.003 0.002 4.68-1.612c0.135-0.103 0.244-0.232 0.321-0.38l0.003-0.006c0.060-0.063 0.127-0.112 0.172-0.189l1.628-2.731 2.892 2.464-3.093 3.485c-0.19 0.207-0.306 0.484-0.306 0.787 0 0.644 0.522 1.167 1.167 1.167 0.354 0 0.671-0.157 0.885-0.406l0.001-0.002 3.861-4.348c0.12-0.135 0.192-0.289 0.24-0.451 0.029-0.088 0.029-0.18 0.036-0.271 0-0.047 0.017-0.088 0.013-0.131-0.006-0.34-0.159-0.642-0.398-0.848l-0.002-0.001-2.66-2.268c0.191-0.183 0.355-0.4 0.472-0.656l1.724-3.733 0.552 1.472c0.023 0.131 0.067 0.259 0.16 0.365 0.080 0.093 0.181 0.166 0.296 0.212l0.005 0.002 0.040 0.009c0.083 0.034 0.179 0.054 0.279 0.054 0.075 0 0.147-0.011 0.215-0.031l-0.005 0.001h0.004c0.024-0.007 0.048-0.003 0.072-0.013 0.124-0.051 0.229-0.128 0.31-0.225l0.001-0.001 3.141-2.663c0.333-0.28 0.193-0.777-0.088-1.112zM21.128 9.735c1.215 0 2.2-0.985 2.2-2.2s-0.985-2.2-2.2-2.2v0c-1.215 0-2.2 0.985-2.2 2.2s0.985 2.2 2.2 2.2v0z"></path>
</symbol>

<symbol id="selectArrow" viewBox="0 0 48 32">
<path fill="none" stroke="#efede8" style="stroke: var(--color1, #efede8)" stroke-linejoin="round" stroke-linecap="round" stroke-miterlimit="4" stroke-width="8" d="M6 7l18 18 18-18"></path>
</symbol>

<symbol id="searchSvg" viewBox="0 0 32 32">
<path fill="none" stroke="#efede8" style="stroke: var(--color1, #efede8)" stroke-linejoin="round" stroke-linecap="round" stroke-miterlimit="4" stroke-width="2.6667" d="M14.667 25.333c5.891 0 10.667-4.776 10.667-10.667s-4.776-10.667-10.667-10.667c-5.891 0-10.667 4.776-10.667 10.667s4.776 10.667 10.667 10.667z"></path>
<path fill="none" stroke="#efede8" style="stroke: var(--color1, #efede8)" stroke-linejoin="round" stroke-linecap="round" stroke-miterlimit="4" stroke-width="2.6667" d="M28.001 28l-5.8-5.8"></path>
</symbol>
  
<symbol id="icon-block" viewBox="0 0 32 32">
<path fill="none" stroke="#e6533c" style="stroke: var(--color1, #e6533c)" stroke-linejoin="miter" stroke-linecap="butt" stroke-miterlimit="4" stroke-width="2.2857" d="M30.857 16c0 8.205-6.652 14.857-14.857 14.857s-14.857-6.652-14.857-14.857c0-8.205 6.652-14.857 14.857-14.857s14.857 6.652 14.857 14.857z"></path>
<path fill="#e6533c" style="fill: var(--color1, #e6533c)" d="M25.143 16c0 5.049-4.093 9.143-9.143 9.143s-9.143-4.093-9.143-9.143c0-5.049 4.093-9.143 9.143-9.143s9.143 4.093 9.143 9.143z"></path>
</symbol>
  
<symbol id="icon-arrow-start" viewBox="0 0 32 32">
<path fill="none" stroke="#e6533c" style="stroke: var(--color2, #e6533c)" stroke-linejoin="round" stroke-linecap="round" stroke-miterlimit="4" stroke-width="2.6" d="M15 28l13-13M28 15l-13-13M28 15h-26"></path>
</symbol>
  
<symbol id="icon-arrow-back" viewBox="0 0 32 32">
<path stroke-linejoin="round" stroke-linecap="round" stroke-miterlimit="4" stroke-width="2.6" d="M17 28l-13-13M4 15l13-13M4 15h26"></path>
</symbol>
  
  <symbol id="icon-play-welcome" viewBox="0 0 24 32">
<path d="M24 16l-24 13.857v-27.713l24 13.856z"></path>
</symbol>

</defs>
</svg>
