<?xml version="1.0" encoding="UTF-8"?>
<svg xmlns="http://www.w3.org/2000/svg" xmlns:xlink="http://www.w3.org/1999/xlink" width="83px" height="32px" viewBox="0 0 82 32" version="1.1">
<g id="surface1">
<path style=" stroke:none;fill-rule:nonzero;fill:rgb(90.196078%,32.54902%,23.529412%);fill-opacity:1;" d="M 80.136719 13.714844 C 81.164062 13.714844 82 14.558594 82 15.597656 L 82 16.402344 C 82 17.441406 81.164062 18.285156 80.136719 18.285156 L 78.007812 18.285156 C 76.976562 18.285156 76.144531 19.128906 76.144531 20.167969 L 76.144531 25.546875 C 76.144531 26.585938 75.308594 27.429688 74.277344 27.429688 L 72.148438 27.429688 C 71.121094 27.429688 70.285156 28.269531 70.285156 29.3125 L 70.285156 30.117188 C 70.285156 31.15625 69.453125 32 68.421875 32 L 63.363281 32 C 62.335938 32 61.5 31.15625 61.5 30.117188 L 61.5 20.167969 C 61.5 19.128906 60.664062 18.285156 59.636719 18.285156 L 22.363281 18.285156 C 21.335938 18.285156 20.5 19.128906 20.5 20.167969 L 20.5 30.117188 C 20.5 31.15625 19.664062 32 18.636719 32 L 13.578125 32 C 12.546875 32 11.714844 31.15625 11.714844 30.117188 L 11.714844 29.3125 C 11.714844 28.269531 10.878906 27.429688 9.851562 27.429688 L 7.722656 27.429688 C 6.691406 27.429688 5.855469 26.585938 5.855469 25.546875 L 5.855469 20.167969 C 5.855469 19.128906 5.023438 18.285156 3.992188 18.285156 L 1.863281 18.285156 C 0.835938 18.285156 0 17.441406 0 16.402344 L 0 15.597656 C 0 14.558594 0.835938 13.714844 1.863281 13.714844 L 3.992188 13.714844 C 5.023438 13.714844 5.855469 12.871094 5.855469 11.832031 L 5.855469 6.453125 C 5.855469 5.414062 6.691406 4.570312 7.722656 4.570312 L 9.851562 4.570312 C 10.878906 4.570312 11.714844 3.730469 11.714844 2.6875 L 11.714844 1.882812 C 11.714844 0.84375 12.546875 0 13.578125 0 L 18.636719 0 C 19.664062 0 20.5 0.84375 20.5 1.882812 L 20.5 11.832031 C 20.5 12.871094 21.335938 13.714844 22.363281 13.714844 L 59.636719 13.714844 C 60.664062 13.714844 61.5 12.871094 61.5 11.832031 L 61.5 1.882812 C 61.5 0.84375 62.335938 0 63.363281 0 L 68.421875 0 C 69.453125 0 70.285156 0.84375 70.285156 1.882812 L 70.285156 2.6875 C 70.285156 3.730469 71.121094 4.570312 72.148438 4.570312 L 74.277344 4.570312 C 75.308594 4.570312 76.144531 5.414062 76.144531 6.453125 L 76.144531 11.832031 C 76.144531 12.871094 76.976562 13.714844 78.007812 13.714844 Z M 80.136719 13.714844 "/>
</g>
</svg>
